<?xml version="1.0" standalone="no"?>
<!DOCTYPE svg PUBLIC "-//W3C//DTD SVG 20010904//EN"
 "http://www.w3.org/TR/2001/REC-SVG-20010904/DTD/svg10.dtd">
<svg version="1.0" xmlns="http://www.w3.org/2000/svg"
 width="500.000000pt" height="500.000000pt" viewBox="0 0 500.000000 500.000000"
 preserveAspectRatio="xMidYMid meet">

<g transform="translate(0.000000,500.000000) scale(0.100000,-0.100000)"
fill="#000000" stroke="none">
<path d="M3680 3021 c0 -5 5 -13 10 -16 6 -3 10 -2 10 4 0 5 -4 13 -10 16 -5
3 -10 2 -10 -4z"/>
<path d="M3429 2998 c-6 -13 -6 -59 -1 -62 4 -2 7 11 7 30 0 30 -2 40 -6 32z"/>
<path d="M3636 2964 c-4 -9 -13 -14 -21 -10 -9 3 -15 0 -15 -9 0 -7 8 -16 18
-18 9 -3 0 -5 -20 -6 -31 -1 -38 -5 -38 -21 0 -22 -25 -28 -33 -7 -3 6 -6 -3
-6 -20 -1 -18 -6 -33 -11 -33 -6 0 -3 -11 5 -24 15 -23 15 -24 -4 -19 -10 3
-28 0 -38 -6 -12 -7 -13 -10 -4 -11 18 0 -88 -100 -107 -100 -4 0 -17 -6 -28
-14 -18 -14 -18 -14 0 -13 10 1 21 -3 23 -10 3 -8 -20 -10 -89 -6 -77 4 -96 2
-113 -12 -11 -9 -14 -14 -7 -10 6 3 12 2 12 -4 0 -5 -9 -13 -20 -16 -13 -4
-20 -15 -20 -31 0 -17 -5 -24 -20 -24 -11 0 -20 5 -20 10 0 6 -9 10 -19 10
-11 0 -21 6 -23 12 -3 8 -9 4 -17 -10 -9 -16 -9 -22 0 -22 6 0 9 -7 5 -15 -3
-8 -1 -15 4 -15 6 0 10 -12 10 -27 0 -25 -1 -25 -19 -9 -21 19 -46 13 -37 -10
3 -8 -1 -14 -9 -14 -11 0 -12 -6 -6 -23 12 -30 -4 -60 -19 -37 -5 8 -10 23
-10 33 0 23 -17 22 -25 -2 -4 -12 -12 -18 -21 -14 -8 3 -25 -2 -39 -11 -13 -9
-31 -16 -40 -16 -8 0 -15 -4 -15 -10 0 -14 38 -12 43 3 3 9 9 7 24 -5 11 -10
24 -18 29 -18 5 0 2 5 -6 10 -12 8 -10 10 10 10 l25 0 -29 -27 c-19 -19 -30
-24 -33 -15 -12 31 -83 4 -83 -32 0 -9 -9 -16 -20 -16 -19 0 -20 -4 -14 -64 7
-73 1 -107 -22 -131 -13 -12 -19 -14 -24 -4 -5 7 -7 1 -7 -15 2 -24 3 -25 15
-9 6 9 12 12 12 7 0 -14 -63 -74 -78 -74 -7 0 -12 -4 -12 -10 0 -5 -7 -10 -16
-10 -8 0 -13 -4 -9 -9 7 -12 -46 -22 -94 -18 -19 1 -36 8 -39 15 -3 9 -7 9
-17 -1 -37 -33 -44 -36 -50 -27 -3 6 -3 15 0 20 3 6 1 10 -6 10 -6 0 -9 -8 -6
-20 4 -17 0 -20 -28 -20 -19 0 -41 -8 -51 -17 -17 -17 -17 -18 1 -21 9 -2 21
1 25 8 9 15 52 9 57 -7 5 -15 -55 -27 -99 -18 -32 6 -32 5 -13 -10 14 -12 32
-15 60 -11 36 5 37 4 16 -6 -31 -16 -170 18 -255 62 l-60 30 -28 -27 c-15 -15
-28 -34 -28 -43 0 -35 223 -119 388 -146 116 -19 330 -14 432 11 144 35 305
101 317 130 6 17 -48 83 -64 78 -6 -2 -15 1 -19 8 -5 8 -3 9 6 4 8 -5 4 7 -8
26 -25 42 -50 129 -52 190 -3 51 9 129 20 129 4 0 12 12 19 28 11 26 11 26 -5
7 -15 -18 -16 -18 -10 -2 3 10 6 21 6 23 0 2 6 4 14 4 8 0 23 11 33 23 10 13
35 32 56 42 20 9 37 21 37 26 0 5 6 9 14 9 7 0 19 7 26 15 15 18 34 20 24 3
-5 -7 -2 -9 8 -6 24 10 141 -8 181 -27 20 -9 41 -13 48 -9 8 5 9 3 4 -6 -6
-10 -4 -12 9 -7 11 5 15 3 10 -5 -5 -8 -2 -9 9 -5 9 3 16 2 14 -4 -1 -5 18
-22 42 -37 26 -15 41 -20 36 -12 -7 12 -6 13 6 3 13 -10 18 -5 34 34 11 25 21
51 22 57 2 6 16 60 32 119 22 79 31 141 35 227 l6 118 -47 -3 c-27 -2 -40 -1
-30 1 12 4 17 16 17 40 0 35 -13 46 -24 18z m-43 -131 c-7 -2 -19 -2 -25 0 -7
3 -2 5 12 5 14 0 19 -2 13 -5z m-513 -314 c0 -15 -4 -19 -16 -15 -9 3 -18 6
-20 6 -2 0 -4 7 -4 15 0 8 9 15 20 15 14 0 20 -7 20 -21z m15 -99 c-3 -5 -12
-10 -18 -10 -7 0 -6 4 3 10 19 12 23 12 15 0z m-31 -26 c3 -8 2 -12 -4 -9 -6
3 -10 10 -10 16 0 14 7 11 14 -7z m-627 -506 c-3 -8 -6 -5 -6 6 -1 11 2 17 5
13 3 -3 4 -12 1 -19z"/>
<path d="M3682 2940 c0 -14 2 -19 5 -12 2 6 2 18 0 25 -3 6 -5 1 -5 -13z"/>
<path d="M3475 2930 c-3 -5 -1 -10 4 -10 6 0 11 5 11 10 0 6 -2 10 -4 10 -3 0
-8 -4 -11 -10z"/>
<path d="M3308 2683 c7 -3 16 -2 19 1 4 3 -2 6 -13 5 -11 0 -14 -3 -6 -6z"/>
<path d="M2946 2613 c-6 -14 -5 -15 5 -6 7 7 10 15 7 18 -3 3 -9 -2 -12 -12z"/>
<path d="M3068 2600 c-20 -17 -21 -19 -5 -20 10 0 16 4 12 9 -3 5 7 11 22 13
22 2 24 5 11 10 -11 4 -26 0 -40 -12z"/>
<path d="M2849 2608 c-8 -27 -5 -36 9 -30 10 4 12 7 4 10 -7 2 -10 8 -6 13 3
5 3 9 0 9 -3 0 -6 -1 -7 -2z"/>
<path d="M2790 2547 c0 -2 6 -10 14 -16 11 -9 16 -9 22 1 4 7 4 10 -1 6 -4 -4
-14 -3 -22 3 -7 6 -13 9 -13 6z"/>
<path d="M3265 2265 c-16 -7 -25 -14 -20 -14 12 -2 -16 -21 -30 -21 -5 0 -3 4
5 10 8 5 12 11 9 15 -3 3 -14 -5 -25 -17 -10 -12 -14 -18 -7 -15 6 4 14 3 18
-3 3 -5 -1 -10 -9 -10 -9 0 -16 -6 -17 -12 0 -7 -3 -31 -5 -53 -4 -32 1 -49
23 -83 15 -23 33 -40 40 -38 7 3 12 0 10 -6 -3 -14 40 -26 70 -20 34 6 107 75
127 120 l18 40 -27 36 c-15 20 -30 36 -32 36 -3 0 0 -7 7 -15 11 -13 10 -14
-4 -9 -9 3 -16 13 -16 20 0 18 -40 34 -83 34 -24 0 -28 3 -17 10 22 14 0 11
-35 -5z m21 -24 c-4 -5 -3 -11 1 -14 5 -2 3 -2 -4 -1 -7 2 -15 -1 -18 -6 -4
-6 -11 -10 -17 -10 -5 0 0 9 13 20 27 22 33 24 25 11z"/>
<path d="M2550 1990 c-9 -6 -10 -10 -3 -10 6 0 15 5 18 10 8 12 4 12 -15 0z"/>
</g>
</svg>
